# xmcd CD database file
#
# Track frame offsets:
#	150
#	8137
#	13275
#	17760
#	23127
#	28437
#	35090
#	40400
#	46380
#	52257
#	56307
#	58665
#	61515
#	64220
#	68460
#	70970
#	73752
#	76617
#	80142
#	83427
#	86052
#	88425
#	94682
#	96625
#	101022
#	103282
#	111195
#	120727
#	126654
#	136320
#	143822
#	147795
#	149812
#	151902
#	159480
#	170807
#	174857
#	179742
#	188220
#	191167
#	193650
#	196015
#	207985
#	217112
#	222365
#	227220
#	242957
#	252437
#	257090
#
# Disc length: 3549 seconds
#
# Revision: 4
# Processed by: cddbd v1.5.1PL2 Copyright (c) Steve Scherf et al.
# Submitted via: CDex 1.51
#
DISCID=f20ddb31
DTITLE=James Brown - The Funkmaster (The Great James Brown Rhythm Sections 1960-1973)
DYEAR=1900
DGENRE=Funk
TTITLE0=Intro
TTITLE1=Think
TTITLE2=Think (Drums)
TTITLE3=Think (Bass)
TTITLE4=Think (Guitar)
TTITLE5=I Don't Mind
TTITLE6=I Don't Mind (Drums)
TTITLE7=I Don't Mind (Bass)
TTITLE8=I Don't Mind (Guitar)
TTITLE9=Out Of Sight
TTITLE10=Out Of Sight (Drums)
TTITLE11=Out Of Sight (Bass)
TTITLE12=Out Of Sight (Guitar)
TTITLE13=Papa's Got A Brand Bew Bag, Pt. 1
TTITLE14=Papa's Got A Brand Bew Bag, Pt. 1 (Drums)
TTITLE15=Papa's Got A Brand Bew Bag, Pt. 1 (Bass)
TTITLE16=Papa's Got A Brand Bew Bag, Pt. 1 (Guitar)
TTITLE17=I Got You (I Feel Good)
TTITLE18=I Got You (I Feel Good) (Drums)
TTITLE19=I Got You (I Feel Good) (Bass)
TTITLE20=I Got You (I Feel Good) (Guitar)
TTITLE21=Don't Be A Dropout
TTITLE22=Don't Be A Dropout (Drums)
TTITLE23=Don't Be A Dropout ( Bass)
TTITLE24=Don't Be A Dropout (Guitar)
TTITLE25=Cold Sweat
TTITLE26=Cold Sweat (Drums)
TTITLE27=Cold Sweat (Bass)
TTITLE28=Cold Sweat (Guitar)
TTITLE29=I Can't Stand Myself When You Touch Me
TTITLE30=I Can't Stand Myself When You Touch Me (Drums)
TTITLE31=I Can't Stand Myself When You Touch Me (Bass)
TTITLE32=I Can't Stand Myself When You Touch Me (Guitar)
TTITLE33=I Got The Feeling
TTITLE34=I Got The Feeling (Drums)
TTITLE35=I Got The Feeling (Bass)
TTITLE36=I Got The Feeling (Guitar)
TTITLE37=Licking Stick - Licking Stock
TTITLE38=Licking Stick - Licking Stock (Drums)
TTITLE39=Licking Stick - Licking Stock (Bass)
TTITLE40=Licking Stick - Licking Stock (Guitar)
TTITLE41=Give It Up Or Turnit A Loose (Studio)
TTITLE42=Give It Up Or Turnit A Loose (Studio) (Drums)
TTITLE43=Give It Up Or Turnit A Loose (Studio) (Bass)
TTITLE44=Give It Up Or Turnit A Loose (Studio) (Guitar)
TTITLE45=Mother Popcorn
TTITLE46=Mother Popcorn (Drums)
TTITLE47=Mother Popcorn (Bass)
TTITLE48=Mother Popcorn (Guitar)
EXTD=This is one of the two CDs for the book of the same name.\n
EXTT0=
EXTT1=
EXTT2=
EXTT3=
EXTT4=
EXTT5=
EXTT6=
EXTT7=
EXTT8=
EXTT9=
EXTT10=
EXTT11=
EXTT12=
EXTT13=
EXTT14=
EXTT15=
EXTT16=
EXTT17=
EXTT18=
EXTT19=
EXTT20=
EXTT21=
EXTT22=
EXTT23=
EXTT24=
EXTT25=
EXTT26=
EXTT27=
EXTT28=
EXTT29=
EXTT30=
EXTT31=
EXTT32=
EXTT33=
EXTT34=
EXTT35=
EXTT36=
EXTT37=
EXTT38=
EXTT39=
EXTT40=
EXTT41=
EXTT42=
EXTT43=
EXTT44=
EXTT45=
EXTT46=
EXTT47=
EXTT48=
PLAYORDER=
